<svg xmlns="http://www.w3.org/2000/svg" viewBox="0 0 1024 327" preserveAspectRatio="xMidYMid" width="1024" height="327" style="shape-rendering: auto; display: block; background: rgb(26, 27, 32);"><g data-idx="1"><path stroke-width="2" stroke-opacity="0" stroke="rgb(41, 167, 214)" fill="none" d="M 0 217.825 C 171 217.825 341 194.175 512 194.175 C 683 194.175 853 217.825 1024 217.825 C 1195 217.825 1365 194.175 1536 194.175 C 1707 194.175 1877 217.825 2048 217.825" data-idx="2" transform="matrix(1,0,0,1,-322.5605163574219,0)">
  
  
  
</path><path stroke-width="2" stroke-opacity="0" stroke="rgb(41, 169, 212)" fill="none" d="M 0 218.646 C 171 218.646 341 193.354 512 193.354 C 683 193.354 853 218.646 1024 218.646 C 1195 218.646 1365 193.354 1536 193.354 C 1707 193.354 1877 218.646 2048 218.646" data-idx="6" transform="matrix(1,0,0,1,-328.0217590332031,0)">
  
  
  
</path><path stroke-width="2" stroke-opacity="0" stroke="rgb(41, 170, 211)" fill="none" d="M 0 219.437 C 171 219.437 341 192.563 512 192.563 C 683 192.563 853 219.437 1024 219.437 C 1195 219.437 1365 192.563 1536 192.563 C 1707 192.563 1877 219.437 2048 219.437" data-idx="10" transform="matrix(1,0,0,1,-333.4830017089844,0)">
  
  
  
</path><path stroke-width="2" stroke-opacity="0" stroke="rgb(40, 172, 209)" fill="none" d="M 0 220.198 C 171 220.198 341 191.802 512 191.802 C 683 191.802 853 220.198 1024 220.198 C 1195 220.198 1365 191.802 1536 191.802 C 1707 191.802 1877 220.198 2048 220.198" data-idx="14" transform="matrix(1,0,0,1,-338.94451904296875,0)">
  
  
  
</path><path stroke-width="2" stroke-opacity="0" stroke="rgb(40, 174, 207)" fill="none" d="M 0 220.928 C 171 220.928 341 191.072 512 191.072 C 683 191.072 853 220.928 1024 220.928 C 1195 220.928 1365 191.072 1536 191.072 C 1707 191.072 1877 220.928 2048 220.928" data-idx="18" transform="matrix(1,0,0,1,-344.40576171875,0)">
  
  
  
</path><path stroke-width="2" stroke-opacity="0" stroke="rgb(40, 176, 205)" fill="none" d="M 0 221.627 C 171 221.627 341 190.373 512 190.373 C 683 190.373 853 221.627 1024 221.627 C 1195 221.627 1365 190.373 1536 190.373 C 1707 190.373 1877 221.627 2048 221.627" data-idx="22" transform="matrix(1,0,0,1,-349.86700439453125,0)">
  
  
  
</path><path stroke-width="2" stroke-opacity="0" stroke="rgb(39, 179, 202)" fill="none" d="M 0 222.296 C 171 222.296 341 189.704 512 189.704 C 683 189.704 853 222.296 1024 222.296 C 1195 222.296 1365 189.704 1536 189.704 C 1707 189.704 1877 222.296 2048 222.296" data-idx="26" transform="matrix(1,0,0,1,-355.3285217285156,0)">
  
  
  
</path><path stroke-width="2" stroke-opacity="0" stroke="rgb(39, 181, 200)" fill="none" d="M 0 222.934 C 171 222.934 341 189.066 512 189.066 C 683 189.066 853 222.934 1024 222.934 C 1195 222.934 1365 189.066 1536 189.066 C 1707 189.066 1877 222.934 2048 222.934" data-idx="30" transform="matrix(1,0,0,1,-360.7897644042969,0)">
  
  
  
</path><path stroke-width="2" stroke-opacity="0" stroke="rgb(39, 184, 197)" fill="none" d="M 0 223.542 C 171 223.542 341 188.458 512 188.458 C 683 188.458 853 223.542 1024 223.542 C 1195 223.542 1365 188.458 1536 188.458 C 1707 188.458 1877 223.542 2048 223.542" data-idx="34" transform="matrix(1,0,0,1,-366.2510070800781,0)">
  
  
  
</path><path stroke-width="2" stroke-opacity="0" stroke="rgb(38, 187, 194)" fill="none" d="M 0 224.119 C 171 224.119 341 187.881 512 187.881 C 683 187.881 853 224.119 1024 224.119 C 1195 224.119 1365 187.881 1536 187.881 C 1707 187.881 1877 224.119 2048 224.119" data-idx="38" transform="matrix(1,0,0,1,-371.7125244140625,0)">
  
  
  
</path><path stroke-width="2" stroke-opacity="0" stroke="rgb(38, 190, 191)" fill="none" d="M 0 224.667 C 171 224.667 341 187.333 512 187.333 C 683 187.333 853 224.667 1024 224.667 C 1195 224.667 1365 187.333 1536 187.333 C 1707 187.333 1877 224.667 2048 224.667" data-idx="42" transform="matrix(1,0,0,1,-377.17376708984375,0)">
  
  
  
</path><path stroke-width="2" stroke-opacity="0" stroke="rgb(38, 193, 188)" fill="none" d="M 0 225.186 C 171 225.186 341 186.814 512 186.814 C 683 186.814 853 225.186 1024 225.186 C 1195 225.186 1365 186.814 1536 186.814 C 1707 186.814 1877 225.186 2048 225.186" data-idx="46" transform="matrix(1,0,0,1,-382.635009765625,0)">
  
  
  
</path><path stroke-width="2" stroke-opacity="0" stroke="rgb(37, 196, 185)" fill="none" d="M 0 225.676 C 171 225.676 341 186.324 512 186.324 C 683 186.324 853 225.676 1024 225.676 C 1195 225.676 1365 186.324 1536 186.324 C 1707 186.324 1877 225.676 2048 225.676" data-idx="50" transform="matrix(1,0,0,1,-388.0965270996094,0)">
  
  
  
</path><path stroke-width="2" stroke-opacity="0" stroke="rgb(37, 199, 182)" fill="none" d="M 0 226.138 C 171 226.138 341 185.862 512 185.862 C 683 185.862 853 226.138 1024 226.138 C 1195 226.138 1365 185.862 1536 185.862 C 1707 185.862 1877 226.138 2048 226.138" data-idx="54" transform="matrix(1,0,0,1,-393.5577697753906,0)">
  
  
  
</path><path stroke-width="2" stroke-opacity="0" stroke="rgb(36, 201, 180)" fill="none" d="M 0 226.573 C 171 226.573 341 185.427 512 185.427 C 683 185.427 853 226.573 1024 226.573 C 1195 226.573 1365 185.427 1536 185.427 C 1707 185.427 1877 226.573 2048 226.573" data-idx="58" transform="matrix(1,0,0,1,-399.0190124511719,0)">
  
  
  
</path><path stroke-width="2" stroke-opacity="0" stroke="rgb(36, 204, 177)" fill="none" d="M 0 226.981 C 171 226.981 341 185.019 512 185.019 C 683 185.019 853 226.981 1024 226.981 C 1195 226.981 1365 185.019 1536 185.019 C 1707 185.019 1877 226.981 2048 226.981" data-idx="62" transform="matrix(1,0,0,1,-404.4804992675781,0)">
  
  
  
</path><path stroke-width="2" stroke-opacity="0" stroke="rgb(36, 207, 174)" fill="none" d="M 0 227.363 C 171 227.363 341 184.637 512 184.637 C 683 184.637 853 227.363 1024 227.363 C 1195 227.363 1365 184.637 1536 184.637 C 1707 184.637 1877 227.363 2048 227.363" data-idx="66" transform="matrix(1,0,0,1,-409.9417724609375,0)">
  
  
  
</path><path stroke-width="2" stroke-opacity="0" stroke="rgb(35, 209, 172)" fill="none" d="M 0 227.719 C 171 227.719 341 184.281 512 184.281 C 683 184.281 853 227.719 1024 227.719 C 1195 227.719 1365 184.281 1536 184.281 C 1707 184.281 1877 227.719 2048 227.719" data-idx="70" transform="matrix(1,0,0,1,-415.40301513671875,0)">
  
  
  
</path><path stroke-width="2" stroke-opacity="0" stroke="rgb(35, 212, 169)" fill="none" d="M 0 228.051 C 171 228.051 341 183.949 512 183.949 C 683 183.949 853 228.051 1024 228.051 C 1195 228.051 1365 183.949 1536 183.949 C 1707 183.949 1877 228.051 2048 228.051" data-idx="74" transform="matrix(1,0,0,1,-420.864501953125,0)">
  
  
  
</path><path stroke-width="2" stroke-opacity="0" stroke="rgb(35, 214, 167)" fill="none" d="M 0 228.358 C 171 228.358 341 183.642 512 183.642 C 683 183.642 853 228.358 1024 228.358 C 1195 228.358 1365 183.642 1536 183.642 C 1707 183.642 1877 228.358 2048 228.358" data-idx="78" transform="matrix(1,0,0,1,-426.3257751464844,0)">
  
  
  
</path><path stroke-width="2" stroke-opacity="0" stroke="rgb(35, 216, 165)" fill="none" d="M 0 228.642 C 171 228.642 341 183.358 512 183.358 C 683 183.358 853 228.642 1024 228.642 C 1195 228.642 1365 183.358 1536 183.358 C 1707 183.358 1877 228.642 2048 228.642" data-idx="82" transform="matrix(1,0,0,1,-431.7870178222656,0)">
  
  
  
</path><path stroke-width="2" stroke-opacity="0" stroke="rgb(34, 218, 163)" fill="none" d="M 0 228.903 C 171 228.903 341 183.097 512 183.097 C 683 183.097 853 228.903 1024 228.903 C 1195 228.903 1365 183.097 1536 183.097 C 1707 183.097 1877 228.903 2048 228.903" data-idx="86" transform="matrix(1,0,0,1,-437.2485046386719,0)">
  
  
  
</path><path stroke-width="2" stroke-opacity="0" stroke="rgb(34, 219, 162)" fill="none" d="M 0 229.142 C 171 229.142 341 182.858 512 182.858 C 683 182.858 853 229.142 1024 229.142 C 1195 229.142 1365 182.858 1536 182.858 C 1707 182.858 1877 229.142 2048 229.142" data-idx="90" transform="matrix(1,0,0,1,-442.7097473144531,0)">
  
  
  
</path><path stroke-width="2" stroke-opacity="0" stroke="rgb(34, 221, 160)" fill="none" d="M 0 229.36 C 171 229.36 341 182.64 512 182.64 C 683 182.64 853 229.36 1024 229.36 C 1195 229.36 1365 182.64 1536 182.64 C 1707 182.64 1877 229.36 2048 229.36" data-idx="94" transform="matrix(1,0,0,1,-448.1710205078125,0)">
  
  
  
</path><path stroke-width="2" stroke-opacity="0" stroke="rgb(34, 222, 159)" fill="none" d="M 0 229.556 C 171 229.556 341 182.444 512 182.444 C 683 182.444 853 229.556 1024 229.556 C 1195 229.556 1365 182.444 1536 182.444 C 1707 182.444 1877 229.556 2048 229.556" data-idx="98" transform="matrix(1,0,0,1,-453.63250732421875,0)">
  
  
  
</path><path stroke-width="2" stroke-opacity="0" stroke="rgb(34, 223, 158)" fill="none" d="M 0 229.733 C 171 229.733 341 182.267 512 182.267 C 683 182.267 853 229.733 1024 229.733 C 1195 229.733 1365 182.267 1536 182.267 C 1707 182.267 1877 229.733 2048 229.733" data-idx="102" transform="matrix(1,0,0,1,-459.09375,0)">
  
  
  
</path><path stroke-width="2" stroke-opacity="0" stroke="rgb(33, 224, 157)" fill="none" d="M 0 229.889 C 171 229.889 341 182.111 512 182.111 C 683 182.111 853 229.889 1024 229.889 C 1195 229.889 1365 182.111 1536 182.111 C 1707 182.111 1877 229.889 2048 229.889" data-idx="106" transform="matrix(1,0,0,1,-464.5550231933594,0)">
  
  
  
</path><path stroke-width="2" stroke-opacity="0" stroke="rgb(33, 225, 156)" fill="none" d="M 0 230.026 C 171 230.026 341 181.974 512 181.974 C 683 181.974 853 230.026 1024 230.026 C 1195 230.026 1365 181.974 1536 181.974 C 1707 181.974 1877 230.026 2048 230.026" data-idx="110" transform="matrix(1,0,0,1,-470.0165100097656,0)">
  
  
  
</path><path stroke-width="2" stroke-opacity="0" stroke="rgb(33, 226, 155)" fill="none" d="M 0 230.145 C 171 230.145 341 181.855 512 181.855 C 683 181.855 853 230.145 1024 230.145 C 1195 230.145 1365 181.855 1536 181.855 C 1707 181.855 1877 230.145 2048 230.145" data-idx="114" transform="matrix(1,0,0,1,-475.4777526855469,0)">
  
  
  
</path><path stroke-width="2" stroke-opacity="0" stroke="rgb(33, 226, 155)" fill="none" d="M 0 230.246 C 171 230.246 341 181.754 512 181.754 C 683 181.754 853 230.246 1024 230.246 C 1195 230.246 1365 181.754 1536 181.754 C 1707 181.754 1877 230.246 2048 230.246" data-idx="118" transform="matrix(1,0,0,1,-480.9389953613281,0)">
  
  
  
</path><path stroke-width="2" stroke-opacity="0" stroke="rgb(33, 227, 154)" fill="none" d="M 0 230.329 C 171 230.329 341 181.671 512 181.671 C 683 181.671 853 230.329 1024 230.329 C 1195 230.329 1365 181.671 1536 181.671 C 1707 181.671 1877 230.329 2048 230.329" data-idx="122" transform="matrix(1,0,0,1,-486.4005126953125,0)">
  
  
  
</path><path stroke-width="2" stroke-opacity="0" stroke="rgb(33, 227, 154)" fill="none" d="M 0 230.395 C 171 230.395 341 181.605 512 181.605 C 683 181.605 853 230.395 1024 230.395 C 1195 230.395 1365 181.605 1536 181.605 C 1707 181.605 1877 230.395 2048 230.395" data-idx="126" transform="matrix(1,0,0,1,-491.86175537109375,0)">
  
  
  
</path><path stroke-width="2" stroke-opacity="0" stroke="rgb(33, 228, 153)" fill="none" d="M 0 230.445 C 171 230.445 341 181.555 512 181.555 C 683 181.555 853 230.445 1024 230.445 C 1195 230.445 1365 181.555 1536 181.555 C 1707 181.555 1877 230.445 2048 230.445" data-idx="130" transform="matrix(1,0,0,1,-497.322998046875,0)">
  
  
  
</path><path stroke-width="2" stroke-opacity="0" stroke="rgb(33, 228, 153)" fill="none" d="M 0 230.478 C 171 230.478 341 181.522 512 181.522 C 683 181.522 853 230.478 1024 230.478 C 1195 230.478 1365 181.522 1536 181.522 C 1707 181.522 1877 230.478 2048 230.478" data-idx="134" transform="matrix(1,0,0,1,-502.7845153808594,0)">
  
  
  
</path><path stroke-width="2" stroke-opacity="0" stroke="rgb(33, 228, 153)" fill="none" d="M 0 230.496 C 171 230.496 341 181.504 512 181.504 C 683 181.504 853 230.496 1024 230.496 C 1195 230.496 1365 181.504 1536 181.504 C 1707 181.504 1877 230.496 2048 230.496" data-idx="138" transform="matrix(1,0,0,1,-508.2457580566406,0)">
  
  
  
</path><path stroke-width="2" stroke-opacity="0" stroke="rgb(33, 228, 153)" fill="none" d="M 0 230.499 C 171 230.499 341 181.501 512 181.501 C 683 181.501 853 230.499 1024 230.499 C 1195 230.499 1365 181.501 1536 181.501 C 1707 181.501 1877 230.499 2048 230.499" data-idx="142" transform="matrix(1,0,0,1,-513.70703125,0)">
  
  
  
</path><path stroke-width="2" stroke-opacity="0" stroke="rgb(33, 228, 153)" fill="none" d="M 0 230.487 C 171 230.487 341 181.513 512 181.513 C 683 181.513 853 230.487 1024 230.487 C 1195 230.487 1365 181.513 1536 181.513 C 1707 181.513 1877 230.487 2048 230.487" data-idx="146" transform="matrix(1,0,0,1,-519.1685180664062,0)">
  
  
  
</path><path stroke-width="2" stroke-opacity="0" stroke="rgb(33, 228, 153)" fill="none" d="M 0 230.459 C 171 230.459 341 181.541 512 181.541 C 683 181.541 853 230.459 1024 230.459 C 1195 230.459 1365 181.541 1536 181.541 C 1707 181.541 1877 230.459 2048 230.459" data-idx="150" transform="matrix(1,0,0,1,-524.6297607421875,0)">
  
  
  
</path><path stroke-width="2" stroke-opacity="0" stroke="rgb(34, 228, 153)" fill="none" d="M 0 230.416 C 171 230.416 341 181.584 512 181.584 C 683 181.584 853 230.416 1024 230.416 C 1195 230.416 1365 181.584 1536 181.584 C 1707 181.584 1877 230.416 2048 230.416" data-idx="154" transform="matrix(1,0,0,1,-530.0910034179688,0)">
  
  
  
</path><path stroke-width="2" stroke-opacity="0" stroke="rgb(34, 228, 152)" fill="none" d="M 0 230.356 C 171 230.356 341 181.644 512 181.644 C 683 181.644 853 230.356 1024 230.356 C 1195 230.356 1365 181.644 1536 181.644 C 1707 181.644 1877 230.356 2048 230.356" data-idx="158" transform="matrix(1,0,0,1,-535.552490234375,0)">
  
  
  
</path><path stroke-width="2" stroke-opacity="0" stroke="rgb(35, 228, 152)" fill="none" d="M 0 230.279 C 171 230.279 341 181.721 512 181.721 C 683 181.721 853 230.279 1024 230.279 C 1195 230.279 1365 181.721 1536 181.721 C 1707 181.721 1877 230.279 2048 230.279" data-idx="162" transform="matrix(1,0,0,1,-541.0137329101562,0)">
  
  
  
</path><path stroke-width="2" stroke-opacity="0" stroke="rgb(36, 228, 151)" fill="none" d="M 0 230.185 C 171 230.185 341 181.815 512 181.815 C 683 181.815 853 230.185 1024 230.185 C 1195 230.185 1365 181.815 1536 181.815 C 1707 181.815 1877 230.185 2048 230.185" data-idx="166" transform="matrix(1,0,0,1,-546.4750366210938,0)">
  
  
  
</path><path stroke-width="2" stroke-opacity="0" stroke="rgb(37, 229, 151)" fill="none" d="M 0 230.073 C 171 230.073 341 181.927 512 181.927 C 683 181.927 853 230.073 1024 230.073 C 1195 230.073 1365 181.927 1536 181.927 C 1707 181.927 1877 230.073 2048 230.073" data-idx="170" transform="matrix(1,0,0,1,-551.9365234375,0)">
  
  
  
</path><path stroke-width="2" stroke-opacity="0" stroke="rgb(38, 229, 150)" fill="none" d="M 0 229.943 C 171 229.943 341 182.057 512 182.057 C 683 182.057 853 229.943 1024 229.943 C 1195 229.943 1365 182.057 1536 182.057 C 1707 182.057 1877 229.943 2048 229.943" data-idx="174" transform="matrix(1,0,0,1,-557.3977661132812,0)">
  
  
  
</path><path stroke-width="2" stroke-opacity="0" stroke="rgb(39, 229, 149)" fill="none" d="M 0 229.793 C 171 229.793 341 182.207 512 182.207 C 683 182.207 853 229.793 1024 229.793 C 1195 229.793 1365 182.207 1536 182.207 C 1707 182.207 1877 229.793 2048 229.793" data-idx="178" transform="matrix(1,0,0,1,-562.8590087890625,0)">
  
  
  
</path><path stroke-width="2" stroke-opacity="0" stroke="rgb(40, 229, 148)" fill="none" d="M 0 229.625 C 171 229.625 341 182.375 512 182.375 C 683 182.375 853 229.625 1024 229.625 C 1195 229.625 1365 182.375 1536 182.375 C 1707 182.375 1877 229.625 2048 229.625" data-idx="182" transform="matrix(1,0,0,1,-568.3204956054688,0)">
  
  
  
</path><path stroke-width="2" stroke-opacity="0.022727272727272728" stroke="rgb(42, 230, 147)" fill="none" d="M 0 229.436 C 171 229.436 341 182.564 512 182.564 C 683 182.564 853 229.436 1024 229.436 C 1195 229.436 1365 182.564 1536 182.564 C 1707 182.564 1877 229.436 2048 229.436" data-idx="186" transform="matrix(1,0,0,1,-573.78173828125,0)">
  
  
  
</path><path stroke-width="2" stroke-opacity="0.045454545454545456" stroke="rgb(44, 230, 145)" fill="none" d="M 0 229.226 C 171 229.226 341 182.774 512 182.774 C 683 182.774 853 229.226 1024 229.226 C 1195 229.226 1365 182.774 1536 182.774 C 1707 182.774 1877 229.226 2048 229.226" data-idx="190" transform="matrix(1,0,0,1,-579.2429809570312,0)">
  
  
  
</path><path stroke-width="2" stroke-opacity="0.06818181818181818" stroke="rgb(46, 231, 144)" fill="none" d="M 0 228.995 C 171 228.995 341 183.005 512 183.005 C 683 183.005 853 228.995 1024 228.995 C 1195 228.995 1365 183.005 1536 183.005 C 1707 183.005 1877 228.995 2048 228.995" data-idx="194" transform="matrix(1,0,0,1,-584.7045288085938,0)">
  
  
  
</path><path stroke-width="2" stroke-opacity="0.09090909090909091" stroke="rgb(49, 231, 142)" fill="none" d="M 0 228.743 C 171 228.743 341 183.257 512 183.257 C 683 183.257 853 228.743 1024 228.743 C 1195 228.743 1365 183.257 1536 183.257 C 1707 183.257 1877 228.743 2048 228.743" data-idx="198" transform="matrix(1,0,0,1,-590.165771484375,0)">
  
  
  
</path><path stroke-width="2" stroke-opacity="0.11363636363636363" stroke="rgb(51, 231, 140)" fill="none" d="M 0 228.467 C 171 228.467 341 183.533 512 183.533 C 683 183.533 853 228.467 1024 228.467 C 1195 228.467 1365 183.533 1536 183.533 C 1707 183.533 1877 228.467 2048 228.467" data-idx="202" transform="matrix(1,0,0,1,-595.6270141601562,0)">
  
  
  
</path><path stroke-width="2" stroke-opacity="0.13636363636363635" stroke="rgb(54, 232, 138)" fill="none" d="M 0 228.169 C 171 228.169 341 183.831 512 183.831 C 683 183.831 853 228.169 1024 228.169 C 1195 228.169 1365 183.831 1536 183.831 C 1707 183.831 1877 228.169 2048 228.169" data-idx="206" transform="matrix(1,0,0,1,-601.0885009765625,0)">
  
  
  
</path><path stroke-width="2" stroke-opacity="0.1590909090909091" stroke="rgb(57, 233, 136)" fill="none" d="M 0 227.846 C 171 227.846 341 184.154 512 184.154 C 683 184.154 853 227.846 1024 227.846 C 1195 227.846 1365 184.154 1536 184.154 C 1707 184.154 1877 227.846 2048 227.846" data-idx="210" transform="matrix(1,0,0,1,-606.5497436523438,0)">
  
  
  
</path><path stroke-width="2" stroke-opacity="0.18181818181818182" stroke="rgb(61, 233, 134)" fill="none" d="M 0 227.499 C 171 227.499 341 184.501 512 184.501 C 683 184.501 853 227.499 1024 227.499 C 1195 227.499 1365 184.501 1536 184.501 C 1707 184.501 1877 227.499 2048 227.499" data-idx="214" transform="matrix(1,0,0,1,-612.010986328125,0)">
  
  
  
</path><path stroke-width="2" stroke-opacity="0.20454545454545456" stroke="rgb(64, 234, 132)" fill="none" d="M 0 227.127 C 171 227.127 341 184.873 512 184.873 C 683 184.873 853 227.127 1024 227.127 C 1195 227.127 1365 184.873 1536 184.873 C 1707 184.873 1877 227.127 2048 227.127" data-idx="218" transform="matrix(1,0,0,1,-617.4725341796875,0)">
  
  
  
</path><path stroke-width="2" stroke-opacity="0.22727272727272727" stroke="rgb(68, 235, 129)" fill="none" d="M 0 226.729 C 171 226.729 341 185.271 512 185.271 C 683 185.271 853 226.729 1024 226.729 C 1195 226.729 1365 185.271 1536 185.271 C 1707 185.271 1877 226.729 2048 226.729" data-idx="222" transform="matrix(1,0,0,1,-622.9337768554688,0)">
  
  
  
</path><path stroke-width="2" stroke-opacity="0.25" stroke="rgb(72, 235, 126)" fill="none" d="M 0 226.305 C 171 226.305 341 185.695 512 185.695 C 683 185.695 853 226.305 1024 226.305 C 1195 226.305 1365 185.695 1536 185.695 C 1707 185.695 1877 226.305 2048 226.305" data-idx="226" transform="matrix(1,0,0,1,-628.39501953125,0)">
  
  
  
</path><path stroke-width="2" stroke-opacity="0.2727272727272727" stroke="rgb(76, 236, 124)" fill="none" d="M 0 225.853 C 171 225.853 341 186.147 512 186.147 C 683 186.147 853 225.853 1024 225.853 C 1195 225.853 1365 186.147 1536 186.147 C 1707 186.147 1877 225.853 2048 225.853" data-idx="230" transform="matrix(1,0,0,1,-633.8565063476562,0)">
  
  
  
</path><path stroke-width="2" stroke-opacity="0.29545454545454547" stroke="rgb(79, 237, 121)" fill="none" d="M 0 225.373 C 171 225.373 341 186.627 512 186.627 C 683 186.627 853 225.373 1024 225.373 C 1195 225.373 1365 186.627 1536 186.627 C 1707 186.627 1877 225.373 2048 225.373" data-idx="234" transform="matrix(1,0,0,1,-639.3177490234375,0)">
  
  
  
</path><path stroke-width="2" stroke-opacity="0.3181818181818182" stroke="rgb(84, 238, 118)" fill="none" d="M 0 224.865 C 171 224.865 341 187.135 512 187.135 C 683 187.135 853 224.865 1024 224.865 C 1195 224.865 1365 187.135 1536 187.135 C 1707 187.135 1877 224.865 2048 224.865" data-idx="238" transform="matrix(1,0,0,1,-644.7789916992188,0)">
  
  
  
</path><path stroke-width="2" stroke-opacity="0.3409090909090909" stroke="rgb(87, 238, 115)" fill="none" d="M 0 224.328 C 171 224.328 341 187.672 512 187.672 C 683 187.672 853 224.328 1024 224.328 C 1195 224.328 1365 187.672 1536 187.672 C 1707 187.672 1877 224.328 2048 224.328" data-idx="242" transform="matrix(1,0,0,1,-650.2405395507812,0)">
  
  
  
</path><path stroke-width="2" stroke-opacity="0.36363636363636365" stroke="rgb(91, 239, 113)" fill="none" d="M 0 223.762 C 171 223.762 341 188.238 512 188.238 C 683 188.238 853 223.762 1024 223.762 C 1195 223.762 1365 188.238 1536 188.238 C 1707 188.238 1877 223.762 2048 223.762" data-idx="246" transform="matrix(1,0,0,1,-655.7017822265625,0)">
  
  
  
</path><path stroke-width="2" stroke-opacity="0.38636363636363635" stroke="rgb(95, 240, 110)" fill="none" d="M 0 223.165 C 171 223.165 341 188.835 512 188.835 C 683 188.835 853 223.165 1024 223.165 C 1195 223.165 1365 188.835 1536 188.835 C 1707 188.835 1877 223.165 2048 223.165" data-idx="250" transform="matrix(1,0,0,1,-661.1630249023438,0)">
  
  
  
</path><path stroke-width="2" stroke-opacity="0.4090909090909091" stroke="rgb(99, 241, 108)" fill="none" d="M 0 222.539 C 171 222.539 341 189.461 512 189.461 C 683 189.461 853 222.539 1024 222.539 C 1195 222.539 1365 189.461 1536 189.461 C 1707 189.461 1877 222.539 2048 222.539" data-idx="254" transform="matrix(1,0,0,1,-666.62451171875,0)">
  
  
  
</path><path stroke-width="2" stroke-opacity="0.4318181818181818" stroke="rgb(102, 241, 105)" fill="none" d="M 0 221.882 C 171 221.882 341 190.118 512 190.118 C 683 190.118 853 221.882 1024 221.882 C 1195 221.882 1365 190.118 1536 190.118 C 1707 190.118 1877 221.882 2048 221.882" data-idx="258" transform="matrix(1,0,0,1,-672.0857543945312,0)">
  
  
  
</path><path stroke-width="2" stroke-opacity="0.45454545454545453" stroke="rgb(105, 242, 103)" fill="none" d="M 0 221.194 C 171 221.194 341 190.806 512 190.806 C 683 190.806 853 221.194 1024 221.194 C 1195 221.194 1365 190.806 1536 190.806 C 1707 190.806 1877 221.194 2048 221.194" data-idx="262" transform="matrix(1,0,0,1,-677.5469970703125,0)">
  
  
  
</path><path stroke-width="2" stroke-opacity="0.4772727272727273" stroke="rgb(108, 242, 101)" fill="none" d="M 0 220.475 C 171 220.475 341 191.525 512 191.525 C 683 191.525 853 220.475 1024 220.475 C 1195 220.475 1365 191.525 1536 191.525 C 1707 191.525 1877 220.475 2048 220.475" data-idx="266" transform="matrix(1,0,0,1,-683.0084838867188,0)">
  
  
  
</path><path stroke-width="2" stroke-opacity="0.5" stroke="rgb(111, 243, 99)" fill="none" d="M 0 219.726 C 171 219.726 341 192.274 512 192.274 C 683 192.274 853 219.726 1024 219.726 C 1195 219.726 1365 192.274 1536 192.274 C 1707 192.274 1877 219.726 2048 219.726" data-idx="270" transform="matrix(1,0,0,1,-688.4697875976562,0)">
  
  
  
</path><path stroke-width="2" stroke-opacity="0.5227272727272727" stroke="rgb(113, 243, 98)" fill="none" d="M 0 218.946 C 171 218.946 341 193.054 512 193.054 C 683 193.054 853 218.946 1024 218.946 C 1195 218.946 1365 193.054 1536 193.054 C 1707 193.054 1877 218.946 2048 218.946" data-idx="274" transform="matrix(1,0,0,1,-693.9310302734375,0)">
  
  
  
</path><path stroke-width="2" stroke-opacity="0.5454545454545454" stroke="rgb(115, 244, 96)" fill="none" d="M 0 218.136 C 171 218.136 341 193.864 512 193.864 C 683 193.864 853 218.136 1024 218.136 C 1195 218.136 1365 193.864 1536 193.864 C 1707 193.864 1877 218.136 2048 218.136" data-idx="278" transform="matrix(1,0,0,1,-699.3925170898438,0)">
  
  
  
</path><path stroke-width="2" stroke-opacity="0.5681818181818182" stroke="rgb(117, 244, 95)" fill="none" d="M 0 217.298 C 171 217.298 341 194.702 512 194.702 C 683 194.702 853 217.298 1024 217.298 C 1195 217.298 1365 194.702 1536 194.702 C 1707 194.702 1877 217.298 2048 217.298" data-idx="282" transform="matrix(1,0,0,1,-704.853759765625,0)">
  
  
  
</path><path stroke-width="2" stroke-opacity="0.5909090909090909" stroke="rgb(119, 244, 93)" fill="none" d="M 0 216.43 C 171 216.43 341 195.57 512 195.57 C 683 195.57 853 216.43 1024 216.43 C 1195 216.43 1365 195.57 1536 195.57 C 1707 195.57 1877 216.43 2048 216.43" data-idx="286" transform="matrix(1,0,0,1,-710.3150024414062,0)">
  
  
  
</path><path stroke-width="2" stroke-opacity="0.6136363636363636" stroke="rgb(121, 245, 92)" fill="none" d="M 0 215.536 C 171 215.536 341 196.464 512 196.464 C 683 196.464 853 215.536 1024 215.536 C 1195 215.536 1365 196.464 1536 196.464 C 1707 196.464 1877 215.536 2048 215.536" data-idx="290" transform="matrix(1,0,0,1,-715.7764892578125,0)">
  
  
  
</path><path stroke-width="2" stroke-opacity="0.6363636363636364" stroke="rgb(122, 245, 91)" fill="none" d="M 0 214.616 C 171 214.616 341 197.384 512 197.384 C 683 197.384 853 214.616 1024 214.616 C 1195 214.616 1365 197.384 1536 197.384 C 1707 197.384 1877 214.616 2048 214.616" data-idx="294" transform="matrix(1,0,0,1,-721.2377319335938,0)">
  
  
  
</path><path stroke-width="2" stroke-opacity="0.6590909090909091" stroke="rgb(123, 245, 91)" fill="none" d="M 0 213.672 C 171 213.672 341 198.328 512 198.328 C 683 198.328 853 213.672 1024 213.672 C 1195 213.672 1365 198.328 1536 198.328 C 1707 198.328 1877 213.672 2048 213.672" data-idx="298" transform="matrix(1,0,0,1,-726.6990356445312,0)">
  
  
  
</path><g data-idx="302"></g></g><text data-watermark="true" text-anchor="middle" dominant-baseline="middle" stroke-opacity="0.1" fill="black" fill-opacity="0.1" stroke="white" stroke-width="1" font-size="15.0" x="512.0" y="163.5" data-idx="303" style="opacity: 1; font-size: 15px;">LOADING.IO</text></svg>